<svg xmlns="http://www.w3.org/2000/svg" width="16" height="16" viewBox="0 0 16 16">
    <g fill="#A59A96">
        <path d="M14.619 9.457l1.365-6.01c.037-.168 0-.345-.104-.48-.103-.136-.263-.214-.429-.214H8.015c-.304 0-.548.252-.548.565 0 .313.244.564.548.564h6.744l-1.108 4.881H3.979L3.03 3.886h1.938c.304 0 .548-.252.548-.565 0-.313-.244-.564-.548-.564H2.811l-.257-1.32c-.028-.148-.112-.28-.238-.364L.845.092C.59-.078.253-.005.087.257c-.163.26-.09.61.163.78l1.277.855L2.974 9.36c.003.055.012.11.031.161l.41 2.11c.05.264.276.455.539.455h10.142c.303 0 .548-.252.548-.565 0-.313-.245-.564-.548-.564H4.405l-.207-1.062h9.888c.254-.003.476-.18.533-.438z"/>
        <path d="M12.943 5.239c0-.313-.244-.565-.548-.565H5.447c-.303 0-.547.252-.547.565 0 .313.244.564.547.564h6.948c.304 0 .548-.251.548-.564zM6.409 6.697c-.304 0-.548.251-.548.564 0 .313.244.565.548.565h4.875c.304 0 .548-.252.548-.565 0-.313-.244-.564-.548-.564H6.409zM6.534 12.613c-.905 0-1.644.761-1.644 1.693 0 .933.74 1.694 1.644 1.694.905 0 1.644-.761 1.644-1.694 0-.932-.74-1.693-1.644-1.693zm0 2.258c-.3 0-.548-.255-.548-.565 0-.31.247-.564.548-.564.3 0 .548.255.548.564 0 .31-.247.565-.548.565zM11.465 12.613c-.904 0-1.643.761-1.643 1.693 0 .933.739 1.694 1.643 1.694.905 0 1.644-.761 1.644-1.694 0-.932-.735-1.693-1.644-1.693zm0 2.258c-.3 0-.547-.255-.547-.565 0-.31.247-.564.547-.564.301 0 .548.255.548.564 0 .31-.244.565-.548.565z"/>
    </g>
</svg>
