<svg xmlns="http://www.w3.org/2000/svg" width="26" height="26" viewBox="0 0 26 26">
    <g fill="#A59A96">
        <path d="M18.274 11.827l1.706-7.512c.047-.21 0-.432-.129-.601-.129-.17-.328-.266-.536-.266H10.02c-.38 0-.685.314-.685.705 0 .391.305.706.685.706h8.43l-1.385 6.1H4.975L3.789 4.864H6.21c.38 0 .685-.315.685-.706 0-.39-.305-.705-.685-.705H3.515l-.321-1.65c-.035-.185-.141-.35-.298-.455L1.056.12C.74-.093.318 0 .11.327c-.204.326-.114.762.203.975L1.91 2.371l1.808 9.335c.004.068.016.137.04.201l.512 2.637c.063.331.344.569.673.569H17.62c.38 0 .685-.315.685-.706 0-.39-.305-.705-.685-.705H5.507l-.258-1.327h12.36c.317-.004.595-.226.665-.548z" transform="translate(3 3)"/>
        <path d="M16.18 6.548c0-.39-.305-.705-.685-.705H6.81c-.38 0-.685.314-.685.705 0 .392.306.706.685.706h8.685c.38 0 .685-.314.685-.706zM8.012 8.371c-.38 0-.685.314-.685.706 0 .39.305.705.685.705h6.094c.38 0 .685-.314.685-.705 0-.392-.306-.706-.685-.706H8.012zM8.168 15.766c-1.13 0-2.054.952-2.054 2.117S7.037 20 8.168 20c1.131 0 2.055-.952 2.055-2.117s-.924-2.117-2.055-2.117zm0 2.823c-.375 0-.685-.319-.685-.706 0-.387.31-.706.685-.706.376 0 .685.319.685.706 0 .387-.309.706-.685.706zM14.333 15.766c-1.131 0-2.055.952-2.055 2.117S13.202 20 14.333 20c1.13 0 2.054-.952 2.054-2.117s-.92-2.117-2.054-2.117zm0 2.823c-.376 0-.685-.319-.685-.706 0-.387.309-.706.685-.706.375 0 .685.319.685.706 0 .387-.306.706-.685.706z" transform="translate(3 3)"/>
    </g>
</svg>
