<svg xmlns="http://www.w3.org/2000/svg" width="36" height="36" viewBox="0 0 36 36">
    <g fill="none" fill-rule="evenodd" transform="translate(-.963 -.963)">
        <circle cx="18.963" cy="18.963" r="18" fill="#F7F5F4"/>
        <path fill="#A59A96" fill-rule="nonzero" d="M20.343 18.963l8.296-8.296c.382-.382.382-.998 0-1.38-.382-.383-.998-.383-1.38 0l-8.296 8.296-8.296-8.296c-.382-.383-.998-.383-1.38 0-.383.382-.383.998 0 1.38l8.296 8.296-8.296 8.296c-.383.382-.383.998 0 1.38.19.191.44.285.69.285.25 0 .499-.094.69-.285l8.296-8.296 8.288 8.289c.191.19.441.284.69.284.25 0 .5-.093.69-.284.383-.382.383-.998 0-1.38l-8.288-8.289z"/>
    </g>
</svg>
