<svg xmlns="http://www.w3.org/2000/svg" width="20" height="20" viewBox="0 0 20 20">
    <g fill="#A59A96">
        <path d="M19.676 7.867l-.776-.778c-.457-.458-1.237-.418-1.743.093l-7.303 7.311c-.116.116-.209.254-.27.41l-1.096 2.675c-.084.209-.036.444.12.604.106.107.248.165.39.165.07 0 .142-.014.208-.04l2.67-1.098c.15-.062.288-.156.408-.271l7.304-7.32c.23-.231.372-.53.403-.84.031-.351-.08-.68-.315-.911zm-9.321 8.08l.483.484-.82.338.337-.822zm1.454-.111l-.864-.867 5.392-5.405.865.867-5.393 5.405zm6.994-7.01l-.816.818-.865-.866.816-.818c.066-.067.137-.084.173-.084h.013l.763.764c.004.031-.005.111-.084.187zM3.831 8.618c.147 0 .289-.058.39-.165l1.429-1.43c.217-.219.217-.57 0-.787-.218-.218-.568-.218-.785 0l-1.038 1.04-.59-.592c-.217-.217-.567-.217-.785 0-.217.218-.217.57 0 .787l.99.982c.101.103.243.165.39.165zM5.85 11.102c0-.746-.613-1.36-1.358-1.36H3.58c-.75 0-1.357.61-1.357 1.36v.916c0 .75.607 1.36 1.357 1.36h.913c.75 0 1.357-.61 1.357-1.36v-.916zm-1.11.92c0 .134-.115.25-.248.25H3.58c-.133 0-.249-.116-.249-.25v-.915c0-.134.116-.25.249-.25h.913c.133 0 .249.116.249.25v.915zM4.492 14.511H3.58c-.75 0-1.357.609-1.357 1.36v.916c0 .75.607 1.36 1.357 1.36h.913c.75 0 1.357-.61 1.357-1.36v-.916c0-.751-.612-1.36-1.357-1.36zm.249 2.28c0 .133-.116.249-.249.249H3.58c-.133 0-.249-.116-.249-.249v-.92c0-.133.116-.249.249-.249h.913c.133 0 .249.116.249.25v.92zM11.472 5.787H7.188c-.306 0-.554.249-.554.555 0 .307.248.556.554.556h4.284c.306 0 .555-.25.555-.556 0-.306-.249-.555-.555-.555zM7.188 8.902h2.408c.306 0 .555-.249.555-.555 0-.307-.249-.556-.555-.556H7.188c-.306 0-.554.249-.554.556 0 .306.248.555.554.555zM12.027 10.698c0-.307-.249-.556-.555-.556H7.188c-.306 0-.554.25-.554.556 0 .306.248.555.554.555h4.284c.306 0 .555-.249.555-.555zM10.15 12.707c0-.307-.248-.556-.554-.556H7.188c-.306 0-.554.249-.554.556 0 .306.248.555.554.555h2.408c.306 0 .555-.249.555-.555zM7.188 14.773c-.306 0-.554.25-.554.556 0 .307.248.555.554.555H8.24c.306 0 .555-.248.555-.555 0-.307-.244-.551-.55-.556H7.188z"/>
        <path d="M14.266 17.933c0-.306-.248-.555-.554-.555-.306 0-.555.249-.555.555v.271c0 .374-.314.685-.682.685H1.818c-.372 0-.683-.316-.683-.685V4.716c0-.374.315-.685.683-.685h.856v.191c0 .498.404.907.905.907H10.7c.496 0 .904-.405.904-.907v-.19h.874c.372 0 .683.315.683.684v3.99c.013.298.253.534.554.534.306 0 .555-.249.555-.556V4.716c.004-.987-.803-1.796-1.792-1.796h-.874v-.107c0-.84-.687-1.524-1.52-1.524h-1.14C8.67.56 7.969.04 7.145.04c-.826 0-1.53.52-1.801 1.249h-1.14c-.838 0-1.521.689-1.521 1.524v.107h-.865c-.984 0-1.791.809-1.791 1.796v13.488C.027 19.191.834 20 1.818 20h10.657c.984 0 1.791-.809 1.791-1.796v-.27c0 .004 0 .004 0 0 0 .004 0 .004 0 0zM3.783 2.813c0-.226.19-.413.412-.413h1.14c.461 0 .873-.289 1.038-.72.12-.316.425-.529.762-.529s.648.213.763.529c.164.431.577.72 1.038.72h1.14c.226 0 .412.191.412.413v1.205H3.783V2.813z"/>
    </g>
</svg>
