<svg xmlns="http://www.w3.org/2000/svg" width="14" height="26" viewBox="0 0 14 26">
    <g fill="none" fill-rule="evenodd">
        <path fill="#A59A96" fill-rule="nonzero" d="M1.541 18.125c.355-.006.658.184.931.446 1.455 1.413 2.915 2.814 4.37 4.233.163.16.25.16.413 0 1.466-1.43 2.938-2.844 4.41-4.263.605-.582 1.443-.54 1.908.089.343.469.343 1.116-.046 1.55-.344.38-.722.724-1.088 1.08-1.472 1.42-2.944 2.839-4.41 4.264-.658.636-1.304.636-1.967-.006C4.293 23.814 2.525 22.104.756 20.4.203 19.865.11 19.2.5 18.648c.244-.339.6-.523 1.041-.523z"/>
        <circle cx="7" cy="13" r="3" fill="#D2CCCA"/>
        <circle cx="7" cy="3" r="3" fill="#E8E5E4"/>
    </g>
</svg>
