<svg xmlns="http://www.w3.org/2000/svg" width="26" height="26" viewBox="0 0 26 26">
    <g fill="#A59A96">
        <path d="M19.473 6.668L13.343.552c-.7-.699-1.839-.699-2.54 0L.537 10.792c-.34.34-.527.79-.527 1.27 0 .481.187.931.527 1.27l6.13 6.116c.347.347.812.525 1.271.525.46 0 .92-.173 1.273-.525l10.263-10.24c.701-.7.701-1.84 0-2.54zm-.79 1.75L8.42 18.66c-.268.268-.697.268-.965 0l-6.13-6.116c-.129-.129-.196-.298-.196-.48 0-.183.072-.353.197-.482l10.263-10.24c.134-.134.308-.2.482-.2.175 0 .349.066.483.2l6.129 6.116c.268.267.268.694 0 .962z" transform="translate(3 3)"/>
        <path d="M6.125 12.904c.246-.245.38-.57.38-.917 0-.348-.134-.673-.38-.918l-.857-.86c-.51-.507-1.33-.507-1.84 0l-.861.86c-.509.508-.509 1.327 0 1.835l.429.428.428.427c.246.245.572.38.92.38.348 0 .674-.135.92-.38l.861-.855zm-1.777.125c-.027 0-.085-.009-.13-.053l-.035-.036.058-.058c.219-.218.219-.57 0-.788-.219-.219-.571-.219-.79 0l-.058.057-.036-.035c-.045-.045-.053-.103-.053-.13 0-.026.009-.084.053-.129l.862-.86c.044-.044.102-.053.13-.053.026 0 .084.01.129.054l.035.035-.058.058c-.218.219-.218.57 0 .789.107.107.25.165.393.165.143 0 .286-.054.393-.165l.058-.058.036.035c.044.045.053.103.053.13 0 .026-.009.084-.053.129l-.862.86c-.044.044-.098.053-.125.053zM7.2 13.292c-.218-.219-.57-.219-.79 0l-1.298 1.296c-.22.218-.22.57 0 .788.107.107.25.165.392.165.143 0 .286-.053.393-.165l1.3-1.296c.223-.218.223-.57.004-.788zM10.326 12.927c-.219-.219-.572-.219-.79 0l-3.12 3.113c-.22.218-.22.57 0 .789.106.106.25.164.392.164.143 0 .286-.053.393-.164l3.12-3.114c.22-.218.22-.57.005-.788zM11.8 12.927L7.624 17.09c-.219.219-.219.57 0 .789.107.107.25.165.393.165.143 0 .286-.054.393-.165l4.174-4.165c.219-.218.219-.57 0-.788-.219-.219-.572-.219-.786 0zM7.982 13.069c.143 0 .286-.053.393-.165l1.3-1.296c.218-.218.218-.57 0-.788-.22-.219-.572-.219-.791 0l-1.3 1.296c-.218.218-.218.57 0 .788.112.112.255.165.398.165zM11.357 8.356l-1.299 1.297c-.219.218-.219.57 0 .788.107.107.25.165.393.165.143 0 .286-.054.393-.165l1.299-1.296c.219-.218.219-.57 0-.789-.214-.218-.567-.218-.786 0zM14.62 5.889c-.218-.219-.57-.219-.79 0l-1.299 1.296c-.219.218-.219.57 0 .788.107.107.25.165.393.165.143 0 .286-.053.393-.165l1.3-1.296c.222-.218.222-.57.004-.788zM15.982 7.047c-.38 0-.74.147-1.009.418-.134.134-.24.294-.312.464-.174.071-.34.178-.478.316-.268.267-.42.628-.42 1.007 0 .378.148.74.42 1.006.272.268.63.42 1.009.42.38 0 .741-.148 1.009-.42.134-.133.241-.294.312-.463.179-.071.34-.178.478-.316.268-.267.42-.628.42-1.007 0-.378-.148-.74-.42-1.007-.268-.271-.625-.418-1.009-.418zm-.567 2.423c-.058.058-.138.089-.219.089-.084 0-.16-.031-.218-.09-.058-.057-.09-.137-.09-.217 0-.085.032-.16.09-.219.058-.057.138-.089.218-.089.08 0 .161.032.22.09.057.057.088.137.088.218.005.08-.026.16-.089.218zM10.241 5.898s.156-.014.232.049c.067.053.107.209.107.41 0 .307.25.556.558.556.308 0 .558-.25.558-.557 0-.699-.28-1.078-.513-1.27-.487-.396-1.09-.293-1.156-.28-.304.058-.5.352-.438.655.058.298.348.494.652.437z" transform="translate(3 3)"/>
        <path d="M11.045 4.664c.026 0 .651-.018.794.9.045.276.282.472.55.472.026 0 .057 0 .084-.005.304-.049.514-.33.464-.637-.236-1.514-1.374-1.866-1.95-1.84-.308.014-.545.272-.532.58.018.307.282.543.59.53z" transform="translate(3 3)"/>
        <path d="M11.79 3.474c.01 0 .902.076 1.228 1.314.067.25.29.415.54.415.05 0 .094-.005.143-.018.299-.08.473-.383.397-.682-.531-1.995-2.16-2.133-2.227-2.138-.309-.022-.576.21-.599.517-.022.307.21.57.518.592z" transform="translate(3 3)"/>
    </g>
</svg>
