<svg xmlns="http://www.w3.org/2000/svg" width="30" height="30" viewBox="0 0 30 30">
    <path fill="#A59A96" d="M24.316 18.284c3.495-3.495 3.515-9.165.047-12.633-3.482-3.482-9.205-3.482-12.68 0-3.237 3.237-3.435 8.38-.613 11.9l-4.233 4.234-2.103-2.104c-.389-.389-1.009-.389-1.398 0-.389.39-.389 1.01 0 1.398l2.097 2.097-2.097 2.097c-.389.389-.389 1.008 0 1.397.39.39 1.01.39 1.398 0l2.097-2.096 2.103 2.096c.39.39 1.009.39 1.398 0 .389-.389.389-1.008 0-1.397l-2.097-2.097 4.233-4.233c3.488 2.795 8.611 2.571 11.848-.66zM13.081 7.042c2.723-2.723 7.16-2.723 9.884 0 2.697 2.696 2.677 7.114-.046 9.837-2.697 2.697-7.095 2.697-9.792 0-2.723-2.723-2.742-7.134-.046-9.837z"/>
</svg>
