<svg xmlns="http://www.w3.org/2000/svg" width="41" height="18" viewBox="0 0 41 18">
    <path fill="#A59A96" d="M1.248 17.676h38.504c.696 0 1.248-.533 1.248-1.179V1.854c0-.657-.564-1.178-1.248-1.178H1.248C.552.676 0 1.208 0 1.854v14.643c0 .657.552 1.179 1.248 1.179zm28.17-9.69V6.637h1.332v1.349h-1.332zm-2.509 0h-1.332V6.637h1.332v1.349zm-5.16 3.717v-1.349h1.332v1.35h-1.333zm-3.842 0v-1.349h1.333v1.35h-1.333zm-3.828 0v-1.349h1.332v1.35h-1.332zm11.498-1.349h1.332v1.35h-1.332v-1.35zm-2.508-2.368h-1.333V6.637h1.333v1.349zm-3.83 0h-1.332V6.637h1.333v1.349zm-3.84 0h-1.332V6.637h1.332v1.349zm-3.829 0h-1.332V6.637h1.332v1.349zm0 2.368v1.35H2.508v-1.35h9.062zm-3.84 3.718v1.235H6.397v-1.235H7.73zm2.508 0h1.332v1.235h-1.332v-1.235zm3.84 0H26.91v1.235H14.08v-1.235zm15.34 0h1.332v1.235h-1.332v-1.235zm3.828 0h1.333v1.235h-1.333v-1.235zm-3.828-2.369v-1.349h9.086v1.35h-9.086zm9.086-3.717h-5.246V6.637h5.246v1.349zM33.246 4.28V3.033h1.333V4.28h-1.333zm-2.508 0h-1.332V3.033h1.332V4.28zm-3.829 0h-1.332V3.033h1.332V4.28zm-3.84 0h-1.333V3.033h1.333V4.28zm-3.83 0h-1.332V3.033h1.333V4.28zm-3.84 0h-1.332V3.033h1.332V4.28zm-3.829 0h-1.332V3.033h1.332V4.28zm-3.84 0H6.397V3.033H7.73V4.28zm0 2.368v1.35H2.496v-1.35H7.73zm-5.222 7.424h1.393v1.235H2.508v-1.235zm34.58 1.235v-1.235h1.416v1.235h-1.417zM38.503 4.28h-1.417V3.033h1.417V4.28zM3.9 3.033V4.28H2.508V3.033h1.393z"/>
</svg>
