<svg xmlns="http://www.w3.org/2000/svg" width="35" height="35" viewBox="0 0 35 35">
    <g fill="none" fill-rule="evenodd" transform="matrix(-1 0 0 1 35 0)">
        <circle cx="17.5" cy="17.5" r="17.5" fill="#F7F5F4" opacity=".8"/>
        <g fill="#A59A96" fill-rule="nonzero">
            <path d="M1.541 6.125c.355-.006.658.184.931.446 1.455 1.413 2.915 2.814 4.37 4.233.163.16.25.16.413 0 1.466-1.43 2.938-2.844 4.41-4.263.605-.582 1.443-.54 1.908.089.343.469.343 1.116-.046 1.55-.344.38-.722.724-1.088 1.08-1.472 1.42-2.944 2.839-4.41 4.264-.658.636-1.304.636-1.967-.006C4.293 11.814 2.525 10.104.756 8.4.203 7.865.11 7.2.5 6.648c.244-.339.6-.523 1.041-.523z" transform="rotate(-90 18.2 7)"/>
            <path d="M13.824 1.435c.012.208-.151.523-.419.78C12.158 3.428 10.9 4.636 9.647 5.85c-.576.554-1.147 1.113-1.73 1.66-.512.489-1.223.483-1.736-.005C4.806 6.185 3.437 4.85 2.057 3.524c-.42-.405-.845-.81-1.27-1.208C.222 1.78.105 1.126.477.566.922-.101 1.79-.178 2.4.405l1.73 1.66c.91.882 1.818 1.762 2.721 2.655.134.131.21.161.361.012.938-.916 1.882-1.827 2.826-2.738.57-.547 1.13-1.101 1.712-1.643.39-.363.851-.452 1.335-.232.483.209.722.601.74 1.316z" opacity=".5" transform="rotate(-90 18.2 7)"/>
        </g>
    </g>
</svg>
