<svg xmlns="http://www.w3.org/2000/svg" width="30" height="30" viewBox="0 0 30 30">
    <path fill="#A59A96" d="M18.936 12.455l6.04-6.04V9.62c0 .547.442.995.989.989.547 0 .995-.442.989-.99V4.03c0-.548-.442-.996-.99-.99h-5.597c-.547 0-.996.442-.989.99 0 .547.442.995.989.989h3.204l-6.04 6.04c-3.494-2.796-8.617-2.572-11.847.658-3.495 3.495-3.515 9.165-.047 12.633 3.482 3.482 9.205 3.482 12.68 0 3.237-3.23 3.435-8.373.62-11.894zm-11.9 10.503c-2.698-2.696-2.678-7.114.045-9.837 2.697-2.697 7.095-2.697 9.792 0 2.723 2.723 2.742 7.14.046 9.837-2.723 2.717-7.16 2.717-9.884 0z"/>
</svg>
