<svg xmlns="http://www.w3.org/2000/svg" width="20" height="20" viewBox="0 0 20 20">
    <path fill="#A59A96" d="M19.195 19.318c.094 0 .189-.02.283-.053.302-.126.503-.43.503-.774v-2.788c0-5.746-4.446-10.427-9.906-10.427H9.24V.841c0-.344-.201-.649-.503-.775s-.648-.04-.868.212L.226 9.096c-.276.318-.276.801 0 1.113l7.642 8.824c.22.252.56.338.868.212.302-.126.503-.43.503-.774v-4.43c3.29.093 6.428 1.603 8.654 4.165l.723.834c.145.185.359.278.579.278zm-9.12-12.387c4.598 0 8.334 3.933 8.334 8.772v.702c-2.547-2.562-5.956-4.018-9.497-4.018h-.46c-.433 0-.785.37-.785.827v3.125l-5.793-6.68L7.66 2.98v3.125c0 .457.353.827.787.827h1.628z"/>
</svg>
