<svg xmlns="http://www.w3.org/2000/svg" width="30" height="30" viewBox="0 0 30 30">
    <g fill="#A59A96">
        <path d="M22.9 4.167c.38-.54.313-1.274-.16-1.747L20.953.633c-.8-.8-2.086-.8-2.886 0L.62 18.087c-.8.8-.8 2.086 0 2.886L2.4 22.76c.467.467 1.207.533 1.747.16.833-.58 1.953-.48 2.673.24s.82 1.847.24 2.673c-.38.54-.313 1.274.16 1.747l1.787 1.787c.8.8 2.086.8 2.886 0l17.454-17.454c.8-.8.8-2.086 0-2.886L27.56 7.24c-.467-.467-1.207-.533-1.747-.16-.833.58-1.96.48-2.673-.24-.72-.713-.82-1.84-.24-2.673zm3.673 4.24l1.694 1.693c.2.2.2.527 0 .733L10.813 28.287c-.2.2-.526.2-.733 0l-1.693-1.694c.92-1.426.726-3.3-.487-4.513s-3.087-1.407-4.513-.487L1.693 19.9c-.2-.2-.2-.527 0-.733L19.147 1.713c.2-.2.526-.2.733 0l1.693 1.694c-.92 1.426-.726 3.3.487 4.513 1.207 1.207 3.087 1.407 4.513.487z"/>
        <path d="M18.42 6.833c-.553.367-1.273.374-1.833.007-.54-.353-1.26-.28-1.714.173L7.107 14.78c-.454.453-.527 1.173-.174 1.713.36.56.36 1.28-.006 1.834-.36.54-.287 1.26.166 1.72l2.84 2.84c.454.453 1.174.52 1.72.166.554-.366 1.274-.373 1.834-.006.54.353 1.26.28 1.713-.174l7.767-7.766c.453-.454.526-1.174.173-1.714-.36-.56-.36-1.28.007-1.833.36-.54.286-1.26-.167-1.72L20.14 7c-.453-.46-1.173-.527-1.72-.167zm3.387 3.98c-.614 1.014-.62 2.287-.014 3.294L14.207 21.7c-1.02-.613-2.287-.6-3.294.013l-2.646-2.646c.613-1.014.62-2.287.013-3.294l7.58-7.58c1.02.614 2.287.6 3.293-.013l2.654 2.633z"/>
        <path d="M18.113 11.973c-1.273-1.273-2.746-.746-3.38-.12-.393.394-.62.834-.68 1.32-.033.207-.046.487-.026.787-.834-.067-1.594.22-2 .633-.954.954-.954 2.507.006 3.467.54.54 1.147.747 1.714.747.686 0 1.313-.307 1.693-.68.48-.48.727-1.36.647-2.154.226.02.44.007.706-.026h.014c.54-.087.98-.3 1.306-.627.68-.68 1.14-2.207 0-3.347zm-3.84 4.974c-.273.273-.74.24-1.053-.067-.093-.093-.213-.28-.24-.507-.027-.226.047-.42.233-.606.08-.08.227-.14.427-.18.233-.014.44.006.633.06l.154.04c.233.753.02 1.08-.154 1.26zm2.674-2.814c-.227.227-.62.294-1.234.207-.2-.713-.066-1.027.207-1.3.02-.02.46-.44 1.02.12.153.153.227.327.22.513-.013.16-.087.334-.213.46z"/>
    </g>
</svg>
