<svg xmlns="http://www.w3.org/2000/svg" width="17" height="20" viewBox="0 0 17 20">
    <g fill="#A59A96">
        <path d="M16.12 4.969l-.792-2.344c-.088-.266-.338-.443-.614-.443H10.88c-.073-.4-.25-.911-.65-1.338C9.73.313 9.025.042 8.14.042c-.02 0-.041 0-.057.005-.02 0-.036-.005-.057-.005-.89 0-1.594.27-2.088.802-.402.432-.579.937-.652 1.338H1.453c-.281 0-.526.177-.614.443L.047 4.969c-.068.198-.037.416.088.588.12.172.318.271.532.271h.74l1.046 12.224c.005.047.042.474.281.912.35.64.943.994 1.677.994h7.323c.735 0 1.334-.354 1.677-.994.235-.438.277-.865.277-.907L14.74 5.828h.76c.208 0 .406-.099.531-.27.125-.173.157-.391.089-.59zm-9.24-3.24c.24-.255.625-.385 1.13-.385.021 0 .042 0 .058-.005.02 0 .036.005.057.005.51 0 .89.13 1.13.385.13.136.214.302.266.458H6.604c.063-.161.146-.322.276-.458zm5.516 16.214c0 .01-.026.229-.14.427-.12.203-.272.286-.522.286H4.411c-.244 0-.4-.088-.52-.286-.115-.198-.141-.412-.141-.427L2.714 5.828H13.433l-1.037 12.115zM8.073 4.526h-6.52l.353-1.042H14.245l.354 1.042H8.073z"/>
        <path d="M7.422 7.464v9.708c0 .36.292.65.65.65.36 0 .652-.29.652-.65V7.464c0-.36-.292-.652-.651-.652-.36 0-.651.292-.651.652zM5.443 7.401c-.032-.36-.35-.62-.709-.588-.359.03-.62.348-.588.708l.89 9.708c.032.339.313.594.646.594.021 0 .042 0 .063-.005.36-.032.62-.35.588-.709l-.89-9.708zM10.302 17.818c.02 0 .047.005.068.005.328 0 .614-.25.646-.583l.968-9.584c.037-.36-.224-.677-.583-.713-.36-.037-.677.224-.713.583l-.97 9.583c-.036.355.225.672.584.709z"/>
    </g>
</svg>
